<svg width="22" height="22" viewBox="0 0 22 22" fill="none" xmlns="http://www.w3.org/2000/svg">
<path d="M1.88933 10.6811C1.81293 10.8869 1.81293 11.1133 1.88933 11.3191C2.63339 13.1232 3.89638 14.6658 5.5182 15.7513C7.14002 16.8367 9.04762 17.4162 10.9992 17.4162C12.9507 17.4162 14.8583 16.8367 16.4801 15.7513C18.1019 14.6658 19.3649 13.1232 20.109 11.3191C20.1854 11.1133 20.1854 10.8869 20.109 10.6811C19.3649 8.87695 18.1019 7.33437 16.4801 6.24891C14.8583 5.16345 12.9507 4.58398 10.9992 4.58398C9.04762 4.58398 7.14002 5.16345 5.5182 6.24891C3.89638 7.33437 2.63339 8.87695 1.88933 10.6811Z" stroke="#F2B52B" stroke-width="1.83" stroke-linecap="round" stroke-linejoin="round"/>
<path d="M11 13.75C12.5188 13.75 13.75 12.5188 13.75 11C13.75 9.48122 12.5188 8.25 11 8.25C9.48122 8.25 8.25 9.48122 8.25 11C8.25 12.5188 9.48122 13.75 11 13.75Z" stroke="#F2B52B" stroke-width="1.83" stroke-linecap="round" stroke-linejoin="round"/>
</svg>
