<svg width="22" height="22" viewBox="0 0 22 22" fill="none" xmlns="http://www.w3.org/2000/svg">
<g clip-path="url(#clip0_155_1816)">
<path d="M11.0007 20.1668C16.0633 20.1668 20.1673 16.0628 20.1673 11.0002C20.1673 5.93755 16.0633 1.8335 11.0007 1.8335C5.93804 1.8335 1.83398 5.93755 1.83398 11.0002C1.83398 16.0628 5.93804 20.1668 11.0007 20.1668Z" stroke="#F2B52B" stroke-width="1.83333" stroke-linecap="round" stroke-linejoin="round"/>
<path d="M11 16.5C14.0376 16.5 16.5 14.0376 16.5 11C16.5 7.96243 14.0376 5.5 11 5.5C7.96243 5.5 5.5 7.96243 5.5 11C5.5 14.0376 7.96243 16.5 11 16.5Z" stroke="#F2B52B" stroke-width="1.83333" stroke-linecap="round" stroke-linejoin="round"/>
<path d="M10.9993 12.8332C12.0119 12.8332 12.8327 12.0124 12.8327 10.9998C12.8327 9.98732 12.0119 9.1665 10.9993 9.1665C9.98683 9.1665 9.16602 9.98732 9.16602 10.9998C9.16602 12.0124 9.98683 12.8332 10.9993 12.8332Z" stroke="#F2B52B" stroke-width="1.83333" stroke-linecap="round" stroke-linejoin="round"/>
</g>
<defs>
<clipPath id="clip0_155_1816">
<rect width="22" height="22" fill="white"/>
</clipPath>
</defs>
</svg>
