<svg width="22" height="22" viewBox="0 0 22 22" fill="none" xmlns="http://www.w3.org/2000/svg">
<path d="M14.6673 19.25V17.4167C14.6673 16.4442 14.281 15.5116 13.5934 14.8239C12.9057 14.1363 11.9731 13.75 11.0007 13.75H5.50065C4.52819 13.75 3.59556 14.1363 2.90793 14.8239C2.22029 15.5116 1.83398 16.4442 1.83398 17.4167V19.25" stroke="#F2B52B" stroke-width="1.83333" stroke-linecap="round" stroke-linejoin="round"/>
<path d="M14.666 2.86719C15.4523 3.07103 16.1486 3.53018 16.6457 4.17258C17.1428 4.81498 17.4125 5.60425 17.4125 6.41652C17.4125 7.22879 17.1428 8.01807 16.6457 8.66046C16.1486 9.30286 15.4523 9.76201 14.666 9.96585" stroke="#F2B52B" stroke-width="1.83333" stroke-linecap="round" stroke-linejoin="round"/>
<path d="M20.166 19.25V17.4166C20.1654 16.6042 19.895 15.815 19.3973 15.1729C18.8995 14.5308 18.2026 14.0722 17.416 13.8691" stroke="#F2B52B" stroke-width="1.83333" stroke-linecap="round" stroke-linejoin="round"/>
<path d="M8.25065 10.0833C10.2757 10.0833 11.9173 8.44171 11.9173 6.41667C11.9173 4.39162 10.2757 2.75 8.25065 2.75C6.22561 2.75 4.58398 4.39162 4.58398 6.41667C4.58398 8.44171 6.22561 10.0833 8.25065 10.0833Z" stroke="#F2B52B" stroke-width="1.83333" stroke-linecap="round" stroke-linejoin="round"/>
</svg>
